<svg version="1.0" xmlns="http://www.w3.org/2000/svg" width="238px" height="349px" viewBox="0 0 238 349" preserveAspectRatio="xMidYMid meet">
 <g fill="#00000">
  <path d="M96.4 346.1 c-6.8 -4.2 -6.4 7.5 -6.4 -172.2 0 -175.4 -0.3 -165.6 5.4 -170.8 4.9 -4.6 11.7 -2.5 15.2 4.6 1.8 3.6 1.9 7.5 2.4 68.8 0.6 73 0 68.4 8.1 72.6 3.6 1.8 6.3 1.9 53.4 1.9 53.8 0 53.4 0 58.7 5.6 3.4 3.6 5.1 11 3.9 16.4 -1.2 5.2 -3.4 8.6 -7.4 11 -3.1 1.9 -5.4 2 -53.2 2 -50 0 -50.1 0 -54.5 2.3 -2.4 1.2 -5.3 3.5 -6.4 5 -2.1 2.8 -2.1 4.2 -2.6 73.5 -0.5 77.7 -0.3 74.1 -6.6 79.1 -3.3 2.6 -6 2.6 -10 0.2z"/>
  <path d="M11.8 306 c-6.9 -3.7 -11.7 -13.3 -10.3 -20.3 3.8 -17.7 26.2 -22.7 35.5 -8 5.1 8 4.8 15.7 -0.7 23.1 -5.2 6.9 -16.6 9.3 -24.5 5.2z"/>
  <path d="M11.8 192 c-6.9 -3.7 -11.7 -13.3 -10.3 -20.3 3.8 -17.7 26.2 -22.7 35.5 -8 5.1 8 4.8 15.7 -0.7 23.1 -5.2 6.9 -16.6 9.3 -24.5 5.2z"/>
  <path d="M14 78.7 c-7 -2.2 -13 -11.1 -13 -19.1 0 -7.4 6.7 -15.8 14.3 -18.1 14.7 -4.4 28.1 8.7 24.2 23.7 -2.8 11.1 -14.2 17.1 -25.5 13.5z"/>
 </g>
</svg>